<mxfile host="65bd71144e">
    <diagram id="g4yyYUyOXo9AEEUgX6hn" name="Page-1">
        <mxGraphModel dx="-1110" dy="-2713" grid="1" gridSize="10" guides="1" tooltips="1" connect="1" arrows="1" fold="1" page="1" pageScale="1" pageWidth="850" pageHeight="1100" math="0" shadow="0">
            <root>
                <mxCell id="0"/>
                <mxCell id="1" parent="0"/>
                <mxCell id="2" value="&lt;h1&gt;App Attributes&lt;/h1&gt;&lt;p&gt;What are the MOST basic requirements of the app from the user's perspective? Key: not done, &lt;font color=&quot;#ffffcc&quot;&gt;started,&lt;/font&gt; &lt;font color=&quot;#cdeb8b&quot;&gt;done&lt;/font&gt;&lt;/p&gt;" style="text;html=1;strokeColor=none;fillColor=none;spacing=5;spacingTop=-20;whiteSpace=wrap;overflow=hidden;rounded=0;" vertex="1" parent="1">
                    <mxGeometry x="3410" y="3330" width="813" height="72" as="geometry"/>
                </mxCell>
                <mxCell id="3" style="edgeStyle=orthogonalEdgeStyle;curved=1;html=1;endArrow=classic;endFill=1;fontColor=#FFFFCC;strokeColor=#FFFFCC;" edge="1" parent="1" source="7" target="8">
                    <mxGeometry relative="1" as="geometry"/>
                </mxCell>
                <mxCell id="4" style="edgeStyle=orthogonalEdgeStyle;curved=1;html=1;endArrow=classic;endFill=1;fontColor=#CDEB8B;strokeColor=#CDEB8B;" edge="1" parent="1" source="7" target="9">
                    <mxGeometry relative="1" as="geometry"/>
                </mxCell>
                <mxCell id="5" style="edgeStyle=orthogonalEdgeStyle;curved=1;html=1;endArrow=classic;endFill=1;fontColor=#CDEB8B;strokeColor=#CDEB8B;" edge="1" parent="1" source="7" target="10">
                    <mxGeometry relative="1" as="geometry"/>
                </mxCell>
                <mxCell id="6" style="edgeStyle=orthogonalEdgeStyle;curved=1;html=1;endArrow=classic;endFill=1;fontColor=#CDEB8B;strokeColor=#CDEB8B;" edge="1" parent="1" source="7" target="11">
                    <mxGeometry relative="1" as="geometry"/>
                </mxCell>
                <mxCell id="7" value="&lt;font&gt;&lt;b&gt;Secure&lt;/b&gt;&amp;nbsp;access&lt;/font&gt;" style="rounded=1;whiteSpace=wrap;html=1;strokeColor=#FFFFCC;fontColor=#FFFFCC;" vertex="1" parent="1">
                    <mxGeometry x="3729" y="3443" width="192" height="60" as="geometry"/>
                </mxCell>
                <mxCell id="8" value="&lt;font color=&quot;#cdeb8b&quot;&gt;&lt;b&gt;Create&lt;/b&gt; Password &lt;/font&gt;&lt;br&gt;&lt;font color=&quot;#ffffff&quot;&gt;or Generate key store entry&lt;br&gt;or Adopt phone biometric stuff&lt;/font&gt;" style="rounded=1;whiteSpace=wrap;html=1;strokeColor=#FFFFCC;fontColor=#FFFFCC;" vertex="1" parent="1">
                    <mxGeometry x="3404" y="3543" width="192" height="60" as="geometry"/>
                </mxCell>
                <mxCell id="9" value="Easily Lock and&amp;nbsp;&lt;b&gt;Unlock&lt;/b&gt;" style="rounded=1;whiteSpace=wrap;html=1;strokeColor=#CDEB8B;fontColor=#CDEB8B;" vertex="1" parent="1">
                    <mxGeometry x="3621" y="3543" width="192" height="60" as="geometry"/>
                </mxCell>
                <mxCell id="10" value="&lt;b&gt;Encrypt&lt;/b&gt; sensitive data" style="rounded=1;whiteSpace=wrap;html=1;strokeColor=#CDEB8B;fontColor=#CDEB8B;" vertex="1" parent="1">
                    <mxGeometry x="3838" y="3543" width="192" height="60" as="geometry"/>
                </mxCell>
                <mxCell id="11" value="No 3rd party risk&lt;br&gt;&lt;b&gt;(Custodial)&lt;/b&gt;" style="rounded=1;whiteSpace=wrap;html=1;strokeColor=#CDEB8B;fontColor=#CDEB8B;" vertex="1" parent="1">
                    <mxGeometry x="4055" y="3543" width="192" height="60" as="geometry"/>
                </mxCell>
                <mxCell id="12" style="edgeStyle=orthogonalEdgeStyle;curved=1;html=1;endArrow=classic;endFill=1;strokeColor=#CDEB8B;" edge="1" parent="1" source="15" target="17">
                    <mxGeometry relative="1" as="geometry"/>
                </mxCell>
                <mxCell id="13" style="edgeStyle=orthogonalEdgeStyle;curved=1;html=1;endArrow=classic;endFill=1;" edge="1" parent="1" source="15" target="19">
                    <mxGeometry relative="1" as="geometry"/>
                </mxCell>
                <mxCell id="14" style="edgeStyle=orthogonalEdgeStyle;curved=1;html=1;endArrow=classic;endFill=1;strokeColor=#FFFFCC;fontColor=#FFFFCC;" edge="1" parent="1" source="15" target="21">
                    <mxGeometry relative="1" as="geometry"/>
                </mxCell>
                <mxCell id="15" value="&lt;font&gt;Good &lt;b&gt;User Experience&lt;/b&gt;&lt;/font&gt;" style="rounded=1;whiteSpace=wrap;html=1;strokeColor=#FFFFCC;fontColor=#FFFFCC;" vertex="1" parent="1">
                    <mxGeometry x="3729" y="3665" width="192" height="60" as="geometry"/>
                </mxCell>
                <mxCell id="16" style="edgeStyle=orthogonalEdgeStyle;curved=1;html=1;endArrow=classic;endFill=1;strokeColor=#FFFFCC;" edge="1" parent="1" source="17" target="24">
                    <mxGeometry relative="1" as="geometry"/>
                </mxCell>
                <mxCell id="17" value="&lt;b&gt;Intuitive &lt;/b&gt;User Interface &lt;b&gt;Design&lt;/b&gt;" style="rounded=1;whiteSpace=wrap;html=1;strokeColor=#CDEB8B;fontColor=#CDEB8B;" vertex="1" parent="1">
                    <mxGeometry x="3506" y="3765" width="192" height="60" as="geometry"/>
                </mxCell>
                <mxCell id="18" style="edgeStyle=orthogonalEdgeStyle;curved=1;html=1;endArrow=classic;endFill=1;" edge="1" parent="1" source="19" target="23">
                    <mxGeometry relative="1" as="geometry"/>
                </mxCell>
                <mxCell id="19" value="&lt;b&gt;No Waiting&lt;/b&gt;" style="rounded=1;whiteSpace=wrap;html=1;" vertex="1" parent="1">
                    <mxGeometry x="3729" y="3765" width="192" height="60" as="geometry"/>
                </mxCell>
                <mxCell id="20" style="edgeStyle=orthogonalEdgeStyle;curved=1;html=1;endArrow=classic;endFill=1;" edge="1" parent="1" source="21" target="22">
                    <mxGeometry relative="1" as="geometry"/>
                </mxCell>
                <mxCell id="21" value="&lt;b&gt;Hand Holding&lt;/b&gt;" style="rounded=1;whiteSpace=wrap;html=1;strokeColor=#FFFFCC;fontColor=#FFFFCC;" vertex="1" parent="1">
                    <mxGeometry x="3953" y="3765" width="192" height="60" as="geometry"/>
                </mxCell>
                <mxCell id="22" value="&lt;b&gt;Keep the user informed &lt;/b&gt;with&lt;br&gt;placeholders, snackbars, etc." style="rounded=1;whiteSpace=wrap;html=1;strokeColor=#FFFFCC;fontColor=#FFFFCC;" vertex="1" parent="1">
                    <mxGeometry x="3953" y="3855" width="192" height="60" as="geometry"/>
                </mxCell>
                <mxCell id="23" value="&lt;b&gt;Preprocess&lt;/b&gt;&amp;nbsp;or pre-fetch anything the user might need" style="rounded=1;whiteSpace=wrap;html=1;" vertex="1" parent="1">
                    <mxGeometry x="3729" y="3855" width="192" height="60" as="geometry"/>
                </mxCell>
                <mxCell id="24" value="Make it &lt;b&gt;beautiful&lt;/b&gt;" style="rounded=1;whiteSpace=wrap;html=1;strokeColor=#FFFFCC;fontColor=#FFFFCC;" vertex="1" parent="1">
                    <mxGeometry x="3506" y="3855" width="192" height="60" as="geometry"/>
                </mxCell>
            </root>
        </mxGraphModel>
    </diagram>
</mxfile>